<svg width="42" height="42" viewBox="0 0 42 42" fill="none" xmlns="http://www.w3.org/2000/svg">
<rect width="42" height="42" rx="21" fill="#1A1D24"/>
<path opacity="0.24" d="M21 11C23.2543 11 25.4163 11.8955 27.0104 13.4896C28.6045 15.0837 29.5 17.2457 29.5 19.5C29.5 26 24 31.5 21 31.5C18 31.5 12.5 26 12.5 19.5C12.5 17.2457 13.3955 15.0837 14.9896 13.4896C16.5837 11.8955 18.7457 11 21 11ZM26.5 21C25.869 21 25.245 21.1327 24.6686 21.3895C24.0922 21.6463 23.5762 22.0214 23.1542 22.4906C22.7322 22.9597 22.4136 23.5124 22.219 24.1127C22.0245 24.713 21.9584 25.3475 22.025 25.975C22.6924 26.0459 23.3672 25.9665 24 25.7428C24.6328 25.5191 25.2075 25.1567 25.6821 24.6821C26.1567 24.2075 26.5191 23.6328 26.7428 23C26.9665 22.3672 27.0459 21.6924 26.975 21.025C26.8172 21.0084 26.6587 21 26.5 21ZM15.5 21C15.34 21 15.181 21.008 15.025 21.025C14.9541 21.6924 15.0335 22.3672 15.2572 23C15.4809 23.6328 15.8433 24.2075 16.3179 24.6821C16.7925 25.1567 17.3672 25.5191 18 25.7428C18.6328 25.9665 19.3076 26.0459 19.975 25.975C20.0416 25.3475 19.9755 24.713 19.781 24.1127C19.5864 23.5124 19.2678 22.9597 18.8458 22.4906C18.4238 22.0214 17.9078 21.6463 17.3314 21.3895C16.755 21.1327 16.131 21 15.5 21Z" fill="white"/>
</svg>
