<svg width="139" height="80" viewBox="0 0 139 80" fill="none" xmlns="http://www.w3.org/2000/svg">
<path d="M5.404 4.2C6.272 4.2 7.02333 4.34467 7.658 4.634C8.302 4.92333 8.79667 5.334 9.142 5.866C9.48733 6.398 9.66 7.028 9.66 7.756C9.66 8.47467 9.48733 9.10467 9.142 9.646C8.79667 10.178 8.302 10.5887 7.658 10.878C7.02333 11.158 6.272 11.298 5.404 11.298H3.43V14H1.162V4.2H5.404ZM5.278 9.45C5.95933 9.45 6.47733 9.30533 6.832 9.016C7.18667 8.71733 7.364 8.29733 7.364 7.756C7.364 7.20533 7.18667 6.78533 6.832 6.496C6.47733 6.19733 5.95933 6.048 5.278 6.048H3.43V9.45H5.278ZM17.5232 14L15.6332 11.27H15.5212H13.5472V14H11.2792V4.2H15.5212C16.3892 4.2 17.1405 4.34467 17.7752 4.634C18.4192 4.92333 18.9139 5.334 19.2592 5.866C19.6045 6.398 19.7772 7.028 19.7772 7.756C19.7772 8.484 19.5999 9.114 19.2452 9.646C18.8999 10.1687 18.4052 10.57 17.7612 10.85L19.9592 14H17.5232ZM17.4812 7.756C17.4812 7.20533 17.3039 6.78533 16.9492 6.496C16.5945 6.19733 16.0765 6.048 15.3952 6.048H13.5472V9.464H15.3952C16.0765 9.464 16.5945 9.31467 16.9492 9.016C17.3039 8.71733 17.4812 8.29733 17.4812 7.756ZM21.5741 4.2H23.8421V14H21.5741V4.2ZM34.1059 12.152V14H25.5379V12.53L30.9139 6.048H25.6499V4.2H33.8959V5.67L28.5339 12.152H34.1059ZM43.1484 12.18V14H35.5604V4.2H42.9664V6.02H37.8144V8.148H42.3644V9.912H37.8144V12.18H43.1484ZM53.1599 4.2C54.0279 4.2 54.7792 4.34467 55.4139 4.634C56.0579 4.92333 56.5525 5.334 56.8979 5.866C57.2432 6.398 57.4159 7.028 57.4159 7.756C57.4159 8.47467 57.2432 9.10467 56.8979 9.646C56.5525 10.178 56.0579 10.5887 55.4139 10.878C54.7792 11.158 54.0279 11.298 53.1599 11.298H51.1859V14H48.9179V4.2H53.1599ZM53.0339 9.45C53.7152 9.45 54.2332 9.30533 54.5879 9.016C54.9425 8.71733 55.1199 8.29733 55.1199 7.756C55.1199 7.20533 54.9425 6.78533 54.5879 6.496C54.2332 6.19733 53.7152 6.048 53.0339 6.048H51.1859V9.45H53.0339ZM63.9178 14.168C62.9004 14.168 61.9811 13.9487 61.1598 13.51C60.3478 13.0713 59.7084 12.4693 59.2418 11.704C58.7844 10.9293 58.5558 10.0613 58.5558 9.1C58.5558 8.13867 58.7844 7.27533 59.2418 6.51C59.7084 5.73533 60.3478 5.12867 61.1598 4.69C61.9811 4.25133 62.9004 4.032 63.9178 4.032C64.9351 4.032 65.8498 4.25133 66.6618 4.69C67.4738 5.12867 68.1131 5.73533 68.5798 6.51C69.0464 7.27533 69.2798 8.13867 69.2798 9.1C69.2798 10.0613 69.0464 10.9293 68.5798 11.704C68.1131 12.4693 67.4738 13.0713 66.6618 13.51C65.8498 13.9487 64.9351 14.168 63.9178 14.168ZM63.9178 12.236C64.4964 12.236 65.0191 12.1053 65.4858 11.844C65.9524 11.5733 66.3164 11.2 66.5778 10.724C66.8484 10.248 66.9838 9.70667 66.9838 9.1C66.9838 8.49333 66.8484 7.952 66.5778 7.476C66.3164 7 65.9524 6.63133 65.4858 6.37C65.0191 6.09933 64.4964 5.964 63.9178 5.964C63.3391 5.964 62.8164 6.09933 62.3498 6.37C61.8831 6.63133 61.5144 7 61.2438 7.476C60.9824 7.952 60.8518 8.49333 60.8518 9.1C60.8518 9.70667 60.9824 10.248 61.2438 10.724C61.5144 11.2 61.8831 11.5733 62.3498 11.844C62.8164 12.1053 63.3391 12.236 63.9178 12.236ZM75.7303 14.168C74.7129 14.168 73.7936 13.9487 72.9723 13.51C72.1603 13.0713 71.5209 12.4693 71.0543 11.704C70.5969 10.9293 70.3683 10.0613 70.3683 9.1C70.3683 8.13867 70.5969 7.27533 71.0543 6.51C71.5209 5.73533 72.1603 5.12867 72.9723 4.69C73.7936 4.25133 74.7129 4.032 75.7303 4.032C76.7476 4.032 77.6623 4.25133 78.4743 4.69C79.2863 5.12867 79.9256 5.73533 80.3923 6.51C80.8589 7.27533 81.0923 8.13867 81.0923 9.1C81.0923 10.0613 80.8589 10.9293 80.3923 11.704C79.9256 12.4693 79.2863 13.0713 78.4743 13.51C77.6623 13.9487 76.7476 14.168 75.7303 14.168ZM75.7303 12.236C76.3089 12.236 76.8316 12.1053 77.2983 11.844C77.7649 11.5733 78.1289 11.2 78.3903 10.724C78.6609 10.248 78.7963 9.70667 78.7963 9.1C78.7963 8.49333 78.6609 7.952 78.3903 7.476C78.1289 7 77.7649 6.63133 77.2983 6.37C76.8316 6.09933 76.3089 5.964 75.7303 5.964C75.1516 5.964 74.6289 6.09933 74.1623 6.37C73.6956 6.63133 73.3269 7 73.0563 7.476C72.7949 7.952 72.6643 8.49333 72.6643 9.1C72.6643 9.70667 72.7949 10.248 73.0563 10.724C73.3269 11.2 73.6956 11.5733 74.1623 11.844C74.6289 12.1053 75.1516 12.236 75.7303 12.236ZM82.7968 4.2H85.0648V12.152H89.9788V14H82.7968V4.2Z" fill="#FF4646"/>
<path d="M29.28 63.16C29.28 65.784 28.32 68.04 26.4 69.928C24.48 71.784 21.712 72.936 18.096 73.384V78.76H13.296V73.528C10.928 73.4 8.672 72.984 6.528 72.28C4.384 71.576 2.656 70.712 1.344 69.688L3.984 63.832C5.2 64.728 6.624 65.48 8.256 66.088C9.888 66.696 11.568 67.08 13.296 67.24V59.224C11.024 58.68 9.104 58.072 7.536 57.4C5.968 56.728 4.656 55.752 3.6 54.472C2.544 53.16 2.016 51.432 2.016 49.288C2.016 46.632 2.976 44.36 4.896 42.472C6.848 40.552 9.648 39.384 13.296 38.968V33.64H18.096V38.872C22.032 39.192 25.28 40.168 27.84 41.8L25.44 47.704C23.04 46.328 20.592 45.496 18.096 45.208V53.368C20.336 53.88 22.224 54.472 23.76 55.144C25.328 55.784 26.64 56.76 27.696 58.072C28.752 59.352 29.28 61.048 29.28 63.16ZM9.744 48.904C9.744 49.704 10.048 50.36 10.656 50.872C11.264 51.384 12.144 51.816 13.296 52.168V45.352C12.08 45.64 11.184 46.104 10.608 46.744C10.032 47.352 9.744 48.072 9.744 48.904ZM18.096 67.048C19.248 66.792 20.112 66.376 20.688 65.8C21.264 65.224 21.552 64.536 21.552 63.736C21.552 62.936 21.248 62.28 20.64 61.768C20.064 61.256 19.216 60.808 18.096 60.424V67.048ZM76.8431 65.944H71.3711V73H63.7871V65.944H45.6911V60.712L61.5311 39.4H69.6911L55.0031 59.608H64.0271V53.32H71.3711V59.608H76.8431V65.944ZM90.5951 52.024C95.3311 52.024 98.8191 52.968 101.059 54.856C103.331 56.744 104.467 59.272 104.467 62.44C104.467 64.488 103.955 66.36 102.931 68.056C101.907 69.72 100.339 71.064 98.2271 72.088C96.1471 73.08 93.5711 73.576 90.4991 73.576C88.1311 73.576 85.7951 73.272 83.4911 72.664C81.2191 72.024 79.2831 71.128 77.6831 69.976L80.7551 64.024C82.0351 64.984 83.5071 65.736 85.1711 66.28C86.8351 66.792 88.5471 67.048 90.3071 67.048C92.2591 67.048 93.7951 66.664 94.9151 65.896C96.0351 65.128 96.5951 64.056 96.5951 62.68C96.5951 61.24 96.0031 60.152 94.8191 59.416C93.6671 58.68 91.6511 58.312 88.7711 58.312H80.1791L81.9071 39.4H102.403V45.64H88.3871L87.8591 52.024H90.5951ZM122.022 73.576C119.238 73.576 116.758 72.888 114.582 71.512C112.406 70.136 110.694 68.152 109.446 65.56C108.23 62.936 107.622 59.816 107.622 56.2C107.622 52.584 108.23 49.48 109.446 46.888C110.694 44.264 112.406 42.264 114.582 40.888C116.758 39.512 119.238 38.824 122.022 38.824C124.806 38.824 127.286 39.512 129.462 40.888C131.638 42.264 133.334 44.264 134.55 46.888C135.798 49.48 136.422 52.584 136.422 56.2C136.422 59.816 135.798 62.936 134.55 65.56C133.334 68.152 131.638 70.136 129.462 71.512C127.286 72.888 124.806 73.576 122.022 73.576ZM122.022 67C124.07 67 125.67 66.12 126.822 64.36C128.006 62.6 128.598 59.88 128.598 56.2C128.598 52.52 128.006 49.8 126.822 48.04C125.67 46.28 124.07 45.4 122.022 45.4C120.006 45.4 118.406 46.28 117.222 48.04C116.07 49.8 115.494 52.52 115.494 56.2C115.494 59.88 116.07 62.6 117.222 64.36C118.406 66.12 120.006 67 122.022 67Z" fill="white"/>
</svg>
